Coordinates
version=1
nRows=7
nColumns=33
inDegrees=yes

Units are S.I. units (second, meters, Newtons, ...)
Angles are in degrees.

endheader
time	ground_thorax_rot_x	ground_thorax_rot_y	ground_thorax_rot_z	ground_thorax_tx	ground_thorax_ty	ground_thorax_tz	clav_prot_r	clav_elev_r	scapula_abduction_r	scapula_elevation_r	scapula_upward_rot_r	scapula_winging_r	shoulder_elv_r	plane_of_elev_r	axial_rot_r	elbow_flexion_r	pro_sup_r	wrist_flex_r	wrist_dev_r	clav_prot_l	clav_elev_l	scapula_abduction_l	scapula_elevation_l	scapula_upward_rot_l	scapula_winging_l	shoulder_elv_l	plane_of_elev_l	axial_rot_l	elbow_flexion_l	pro_sup_l	wrist_flex_l	wrist_dev_l
      8.89000000	    -90.00000000	     90.00000000	    -90.00000000	    -39.91067442	    829.99034353	    -36.61760382	     29.00971230	     35.90166226	     45.00000000	     45.00000000	     11.24638397	   2135.09247575	   2989.40550878	     29.29248631	    -49.52124606	   2518.62575426	    162.88899661	     12.89110020	     15.68506299	    -45.00000000	     24.53358272	     41.01683780	    -17.84398556	     45.00000000	   2627.35745762	  -5454.00704062	    141.36692624	     51.14040182	   1429.87170737	   -313.59372595	     14.47499674	    -18.04166091
      8.90000000	    -90.00000000	     90.00000000	    -90.00000000	    -37.48949383	    828.60116302	    -36.48838425	     28.93046935	     35.97394935	     45.00000000	     45.00000000	     11.17314493	   2134.74225086	   2989.34429187	     29.28112455	    -49.94407432	   2518.66427327	    163.36831865	     12.82064903	     15.64641419	    -45.00000000	     24.66092667	     41.12948992	    -17.88205707	     45.00000000	   2627.41515830	  -5453.99345896	    141.42283050	     51.43862125	   1429.81802406	   -313.57685449	     14.45664659	    -17.86834364
      8.91000000	    -90.00000000	     90.00000000	    -90.00000000	    -35.10364625	    827.20764001	    -36.36025959	     28.83859317	     36.05032547	     45.00000000	     45.00000000	     11.05679274	   2134.41140418	   2989.30311957	     29.25170050	    -50.32782061	   2518.74780708	    163.83485734	     12.70974570	     15.64191563	    -45.00000000	     24.84983151	     41.22934664	    -17.90139892	     45.00000000	   2627.52300677	  -5453.92252401	    141.38530107	     51.75997343	   1429.79184815	   -313.57010429	     14.46425702	    -17.74413244
      8.92000000	    -90.00000000	     90.00000000	    -90.00000000	    -32.75426768	    825.80824916	    -36.23330799	     28.75874569	     36.12546769	     45.00000000	     45.00000000	     10.99334639	   2134.05156263	   2989.24032272	     29.26505841	    -50.72407820	   2518.78379036	    164.30532128	     12.63153151	     15.59806245	    -45.00000000	     24.99499886	     41.30353282	    -17.93968934	     45.00000000	   2627.60236844	  -5453.87217794	    141.42326559	     52.03037888	   1429.72938931	   -313.55736026	     14.41798576	    -17.56503169
      8.93000000	    -90.00000000	     90.00000000	    -90.00000000	    -30.44347288	    824.40205482	    -36.10819545	     28.67383184	     36.19749857	     45.00000000	     45.00000000	     10.90993268	   2133.70521554	   2989.17112683	     29.26987656	    -51.06981199	   2518.83572122	    164.77722541	     12.55142889	     15.54899668	    -45.00000000	     25.12191720	     41.42356537	    -17.99467132	     45.00000000	   2627.65732166	  -5453.86996373	    141.43751661	     52.28796741	   1429.71523984	   -313.56175364	     14.37776262	    -17.40646209
      8.94000000	    -90.00000000	     90.00000000	    -90.00000000	    -28.16866634	    822.98560349	    -35.98596590	     28.59397224	     36.27047344	     45.00000000	     45.00000000	     10.86044455	   2133.36600411	   2989.09953460	     29.27569044	    -51.42833545	   2518.87186194	    165.26504266	     12.49239328	     15.48070658	    -45.00000000	     25.24777928	     41.52477189	    -18.03990826	     45.00000000	   2627.64866088	  -5453.88786254	    141.54256252	     52.52148029	   1429.62508865	   -313.55861501	     14.33508692	    -17.21640397
      8.95000000	    -90.00000000	     90.00000000	    -90.00000000	    -25.93004027	    821.55850435	    -35.86803643	     28.50935005	     36.33717960	     45.00000000	     45.00000000	     10.79355618	   2133.03440844	   2989.04681100	     29.28144717	    -51.74808882	   2518.92776331	    165.76301310	     12.42291379	     15.41799990	    -45.00000000	     25.40764493	     41.62274321	    -18.10128117	     45.00000000	   2627.68871575	  -5453.88715801	    141.59048515	     52.75190116	   1429.55826780	   -313.57144491	     14.30567265	    -17.04555633
